<svg width="29" height="29" viewBox="0 0 29 29" fill="none" xmlns="http://www.w3.org/2000/svg">
<path d="M21.1951 18.7089C20.8949 18.4081 20.4873 18.239 20.0622 18.239H19.6093C19.4855 18.239 19.3664 18.1909 19.2772 18.105V18.105C19.0947 17.9289 19.0821 17.6417 19.2393 17.4426C20.6915 15.6038 21.5552 13.2858 21.5552 10.7776C21.5552 4.82504 16.7301 0 10.7776 0C4.82504 0 0 4.82504 0 10.7776C0 16.7301 4.82504 21.5552 10.7776 21.5552C13.2858 21.5552 15.6038 20.6915 17.4426 19.2393C17.6417 19.0821 17.9289 19.0947 18.105 19.2772V19.2772C18.1909 19.3664 18.239 19.4855 18.239 19.6093V20.0622C18.239 20.4873 18.4081 20.8949 18.7089 21.1951L25.2929 27.766C25.976 28.4477 27.0823 28.4471 27.7647 27.7647V27.7647C28.4471 27.0823 28.4477 25.976 27.766 25.2929L21.1951 18.7089ZM10.7776 18.239C6.64894 18.239 3.31618 14.9062 3.31618 10.7776C3.31618 6.64894 6.64894 3.31618 10.7776 3.31618C14.9062 3.31618 18.239 6.64894 18.239 10.7776C18.239 14.9062 14.9062 18.239 10.7776 18.239Z" fill="white"/>
</svg>
