<svg width="115" height="79" viewBox="0 0 115 79" fill="none" xmlns="http://www.w3.org/2000/svg">
<path d="M68.8641 0.177204C62.9997 1.05063 59.4852 7.06061 61.1697 13.3825C61.7104 15.3789 62.7502 17.105 63.8939 17.8744C64.0811 17.9784 64.6634 18.3943 65.2249 18.7686C67.1589 20.0372 68.2819 20.3491 70.9437 20.3491C73.6056 20.3491 74.7286 20.0372 76.6626 18.7686C77.224 18.3943 77.8479 17.9784 78.0767 17.8536C78.2846 17.7081 78.5758 17.4169 78.7213 17.1882C78.8461 16.9594 79.2204 16.3355 79.5532 15.7948C81.5912 12.4883 81.6951 8.72427 79.8443 5.16819C79.5324 4.60671 79.1373 4.00363 78.9709 3.85806C78.7837 3.69169 78.6382 3.46294 78.6382 3.33816C78.6382 2.98464 77.0161 1.6953 75.6852 0.967444C74.8741 0.551529 74.0839 0.301979 73.0857 0.218796C72.3162 0.135613 71.4428 0.0524296 71.1517 0.010838C70.8605 -0.0307536 69.8415 0.0524296 68.8641 0.177204ZM73.2936 3.54612C77.2656 4.93944 79.1996 9.61849 77.3488 13.3409C74.6454 18.7894 67.0757 18.6439 64.4762 13.0914C61.8768 7.55971 67.45 1.52893 73.2936 3.54612Z" fill="white"/>
<path d="M12.2996 7.35176C8.84747 8.45394 6.76789 10.4919 5.49935 13.9648C4.60513 16.4187 4.93786 19.9124 6.28959 22.2415C7.64132 24.5915 9.40896 26.0472 11.8005 26.8166C14.296 27.6069 16.3548 27.6069 18.6423 26.8166C20.9298 26.0472 21.2002 25.8808 22.5727 24.5083C25.193 21.888 26.2743 17.8328 25.2761 14.4223C24.2572 10.9286 21.9904 8.66189 18.2264 7.37256C16.6667 6.83187 13.9216 6.83187 12.2996 7.35176ZM18.4551 10.8455C20.8051 12.1556 22.3023 14.5679 22.3023 17.0842C22.3231 17.8536 22.1776 18.8934 21.9904 19.3925C20.9714 22.2415 18.2472 24.2587 15.4189 24.2795C12.6739 24.3003 10.3864 22.9694 9.24259 20.6819C7.97405 18.1448 7.97405 16.2108 9.201 13.6945C10.8439 10.3671 15.1902 9.01542 18.4551 10.8455Z" fill="white"/>
<path d="M95.7323 7.35179C94.0062 7.99646 92.093 9.14022 91.1572 10.1176C89.4312 11.8853 88.4122 14.5263 88.4122 17.2298C88.4122 20.0996 89.452 22.5327 91.5523 24.5915C92.5921 25.6313 93.1328 25.9848 94.5261 26.5255C97.5207 27.6901 99.6627 27.7109 102.72 26.6503C106.442 25.3609 109 21.4929 109 17.105C109 12.7795 106.484 9.16102 102.366 7.55974C100.682 6.89428 97.2712 6.7903 95.7323 7.35179ZM101.784 10.7415C103.323 11.5109 104.134 12.3012 104.82 13.6945C106.047 16.2108 106.047 18.1448 104.778 20.6819C103.635 22.9694 101.347 24.3004 98.6021 24.2796C96.4601 24.2796 94.2766 23.0734 92.9872 21.2226C90.5541 17.6665 91.6563 13.1122 95.5243 10.8455C97.2504 9.82649 99.9122 9.78489 101.784 10.7415Z" fill="white"/>
<path d="M41.6216 13.5281C38.4191 14.152 36.0068 15.9404 34.6551 18.6855C33.2201 21.5553 33.2617 24.3419 34.7382 27.4197C36.3603 30.747 39.2925 32.5563 43.0774 32.5563C46.883 32.5563 50.1271 30.4767 51.874 26.9414C52.5186 25.6105 52.5394 25.4649 52.5394 22.9694C52.5394 20.4947 52.5186 20.3076 51.8948 19.0182C50.7926 16.7515 48.5674 14.7967 46.0719 13.944C45.0114 13.5905 42.5367 13.3618 41.6216 13.5281ZM46.1135 17.5625C47.2781 18.1656 47.694 18.4983 48.2971 19.4133C50.0647 22.0544 49.836 25.0074 47.694 27.191C46.5503 28.3763 45.864 28.7714 44.3459 29.125C42.2247 29.6241 40.1659 28.9586 38.4607 27.191C36.3395 25.0282 36.09 22.1584 37.7952 19.4965C38.5647 18.2904 39.0014 17.9576 40.7274 17.2298C42.4743 16.4811 44.1795 16.6059 46.1135 17.5625Z" fill="white"/>
<path d="M69.1969 23.5933C66.9301 23.9884 64.4554 25.8808 63.478 27.9604L62.9374 29.1041L62.875 53.5808L62.8334 78.0574L63.3949 78.4318C63.894 78.7645 64.6426 78.8061 70.5278 78.8685C77.5776 78.9309 78.555 78.8477 78.7422 78.0158C78.8045 77.7663 78.8253 66.5158 78.8045 53.0193L78.7422 28.4803L78.2846 27.6068C77.4944 26.1511 75.5188 24.4875 73.8551 23.9052C72.8361 23.5517 70.4238 23.3853 69.1969 23.5933ZM72.5242 26.8166C73.7304 27.1701 74.791 28.1267 75.3316 29.3121C75.706 30.1023 75.7268 31.3085 75.7268 52.9569V75.7907H70.9437H66.1607V52.9569C66.1607 31.3085 66.1815 30.1023 66.5558 29.3121C67.5956 27.0454 69.9455 26.0472 72.5242 26.8166Z" fill="white"/>
<path d="M12.0708 30.9549C11.4262 31.2045 10.6151 31.6204 10.2824 31.8699C9.49215 32.4314 7.82849 34.9061 7.53735 35.9667C7.37098 36.549 7.30859 43.0165 7.30859 57.428V78.0782L7.87008 78.4317C8.38997 78.7644 9.07624 78.806 15.315 78.806C21.5537 78.806 22.24 78.7644 22.7599 78.4317L23.3214 78.0782V57.5735C23.3214 42.8085 23.259 36.8193 23.0718 36.1123C22.8015 34.9269 21.6993 33.2217 20.6595 32.3066C20.2436 31.9323 19.3078 31.3708 18.6007 31.0381C17.4569 30.5182 17.0618 30.4558 15.2734 30.4558C13.6305 30.4558 13.0066 30.5598 12.0708 30.9549ZM17.3946 34.0535C17.6233 34.1783 18.164 34.5526 18.5799 34.8853C20.0772 36.0707 19.994 34.9269 19.994 56.4506V75.7906H15.211H10.428V56.4506C10.428 39.2732 10.4696 37.0273 10.7607 36.2994C11.2182 35.1557 12.6739 34.0743 14.1712 33.7623C15.0238 33.5752 16.8123 33.7416 17.3946 34.0535Z" fill="white"/>
<path d="M95.358 31.0381C94.6717 31.3708 93.7567 31.9531 93.3408 32.3066C92.3218 33.2217 91.2196 34.9477 90.9493 36.1123C90.7621 36.8193 90.6997 42.8085 90.6997 57.5735V78.0782L91.2612 78.4317C91.7811 78.7644 92.4673 78.806 98.7061 78.806C104.966 78.806 105.631 78.7644 106.151 78.4317L106.712 78.0574L106.671 57.012L106.608 35.9667L106.13 35.0725C105.07 33.0553 104.071 31.9739 102.616 31.2461C101.326 30.6222 101.035 30.5598 98.914 30.4974C96.7513 30.435 96.5641 30.4766 95.358 31.0381ZM100.994 34.1575C102.179 34.7605 102.928 35.4676 103.26 36.2994C103.552 37.0273 103.593 39.2732 103.593 56.4506V75.7906H98.8101H94.027V56.4506C94.027 34.9269 93.9439 36.0707 95.4411 34.8853C95.8571 34.5526 96.3562 34.1991 96.5225 34.0951C97.4375 33.5336 99.8499 33.5752 100.994 34.1575Z" fill="white"/>
<path d="M40.3739 35.0101C38.731 35.3637 36.7138 37.0273 35.7572 38.795L35.2789 39.71L35.2165 58.6342C35.1749 69.0321 35.2165 77.7663 35.2789 78.0158C35.4869 78.8477 36.4643 78.9309 43.4932 78.8685C49.3576 78.8061 50.1271 78.7645 50.6262 78.4318L51.1877 78.0782V59.7155C51.1877 40.4586 51.1877 40.3547 50.2727 38.587C49.7528 37.5888 48.0891 35.9875 47.0077 35.4261C46.2383 35.0309 45.6976 34.9478 43.5972 34.9062C42.2247 34.8646 40.769 34.9062 40.3739 35.0101ZM45.3649 38.3583C46.3215 38.8574 47.1325 39.7308 47.5276 40.6874C47.8188 41.3737 47.8604 43.578 47.8604 58.6342V75.7907H43.0773H38.2943V58.6342C38.2943 39.8556 38.2527 40.6458 39.5004 39.3357C40.9561 37.7968 43.4516 37.3809 45.3649 38.3583Z" fill="white"/>
<path d="M7.16719 75.2651C7.16719 74.2376 7.69301 73.2816 8.56075 72.7315L104.682 11.7869C106.088 10.8953 107.956 11.6086 108.41 13.2105V13.2105C108.711 14.2717 108.277 15.4043 107.345 15.9937L12.4172 75.9998L9.41719 77.4998L7.82171 78.2975C7.5983 78.4092 7.32664 78.3187 7.21493 78.0953V78.0953C7.18353 78.0325 7.16719 77.9632 7.16719 77.893L7.16719 75.9998L7.16719 75.2651Z" fill="#973E3E"/>
</svg>
