<svg width="18" height="18" viewBox="0 0 18 18" fill="none" xmlns="http://www.w3.org/2000/svg">
<path d="M8.79164 3.51666C9.02481 3.51666 9.24843 3.42404 9.41331 3.25916C9.57818 3.09429 9.67081 2.87067 9.67081 2.6375V0.879166C9.67081 0.645996 9.57818 0.422377 9.41331 0.257502C9.24843 0.0926261 9.02481 0 8.79164 0C8.55847 0 8.33485 0.0926261 8.16998 0.257502C8.0051 0.422377 7.91248 0.645996 7.91248 0.879166V2.6375C7.91248 2.87067 8.0051 3.09429 8.16998 3.25916C8.33485 3.42404 8.55847 3.51666 8.79164 3.51666Z" fill="#EBEBF0"/>
<path d="M16.7041 7.91248H14.9458C14.7126 7.91248 14.489 8.0051 14.3242 8.16998C14.1593 8.33485 14.0667 8.55847 14.0667 8.79164C14.0667 9.02481 14.1593 9.24843 14.3242 9.41331C14.489 9.57818 14.7126 9.67081 14.9458 9.67081H16.7041C16.9373 9.67081 17.1609 9.57818 17.3258 9.41331C17.4907 9.24843 17.5833 9.02481 17.5833 8.79164C17.5833 8.55847 17.4907 8.33485 17.3258 8.16998C17.1609 8.0051 16.9373 7.91248 16.7041 7.91248Z" fill="#EBEBF0"/>
<path d="M3.51666 8.79164C3.51666 8.55847 3.42404 8.33485 3.25916 8.16998C3.09429 8.0051 2.87067 7.91248 2.6375 7.91248H0.879166C0.645996 7.91248 0.422377 8.0051 0.257502 8.16998C0.0926261 8.33485 0 8.55847 0 8.79164C0 9.02481 0.0926261 9.24843 0.257502 9.41331C0.422377 9.57818 0.645996 9.67081 0.879166 9.67081H2.6375C2.87067 9.67081 3.09429 9.57818 3.25916 9.41331C3.42404 9.24843 3.51666 9.02481 3.51666 8.79164Z" fill="#EBEBF0"/>
<path d="M3.71013 2.63737C3.53875 2.47531 3.31001 2.38798 3.07424 2.39457C2.83847 2.40117 2.61497 2.50115 2.45292 2.67253C2.29087 2.84391 2.20353 3.07265 2.21013 3.30842C2.21672 3.54419 2.31671 3.76769 2.48809 3.92974L3.75408 5.15178C3.83904 5.23382 3.93966 5.29789 4.04992 5.34019C4.16019 5.38248 4.27785 5.40213 4.39587 5.39795C4.5143 5.3975 4.63142 5.37312 4.74019 5.32629C4.84897 5.27945 4.94716 5.21113 5.02887 5.12541C5.19262 4.96068 5.28453 4.73786 5.28453 4.50559C5.28453 4.27333 5.19262 4.0505 5.02887 3.88578L3.71013 2.63737Z" fill="#EBEBF0"/>
<path d="M13.1874 5.398C13.4138 5.3971 13.6311 5.30892 13.794 5.15183L15.06 3.92979C15.2145 3.76842 15.3017 3.55432 15.304 3.33097C15.3063 3.10761 15.2235 2.89176 15.0724 2.72724C14.9213 2.56273 14.7133 2.46189 14.4905 2.44521C14.2678 2.42852 14.0471 2.49725 13.8732 2.63742L12.6072 3.88584C12.4434 4.05056 12.3515 4.27338 12.3515 4.50565C12.3515 4.73791 12.4434 4.96074 12.6072 5.12546C12.7594 5.2861 12.9666 5.38342 13.1874 5.398Z" fill="#EBEBF0"/>
<path d="M8.79164 14.0667C8.55847 14.0667 8.33485 14.1593 8.16998 14.3242C8.0051 14.489 7.91248 14.7126 7.91248 14.9458V16.7041C7.91248 16.9373 8.0051 17.1609 8.16998 17.3258C8.33485 17.4907 8.55847 17.5833 8.79164 17.5833C9.02481 17.5833 9.24843 17.4907 9.41331 17.3258C9.57818 17.1609 9.67081 16.9373 9.67081 16.7041V14.9458C9.67081 14.7126 9.57818 14.489 9.41331 14.3242C9.24843 14.1593 9.02481 14.0667 8.79164 14.0667Z" fill="#EBEBF0"/>
<path d="M13.8294 12.4314C13.6615 12.2693 13.4361 12.1806 13.2028 12.1847C12.9695 12.1888 12.7474 12.2855 12.5854 12.4533C12.4233 12.6212 12.3346 12.8466 12.3387 13.0799C12.3428 13.3132 12.4395 13.5353 12.6073 13.6974L13.8733 14.9458C14.0363 15.1029 14.2536 15.191 14.48 15.1919C14.5978 15.1926 14.7145 15.1696 14.8232 15.1243C14.932 15.079 15.0305 15.0123 15.113 14.9282C15.1954 14.8465 15.2608 14.7492 15.3054 14.6421C15.35 14.535 15.373 14.42 15.373 14.304C15.373 14.1879 15.35 14.073 15.3054 13.9659C15.2608 13.8587 15.1954 13.7615 15.113 13.6798L13.8294 12.4314Z" fill="#EBEBF0"/>
<path d="M3.75402 12.4314L2.48802 13.6534C2.40562 13.7351 2.34021 13.8324 2.29558 13.9395C2.25095 14.0466 2.22797 14.1615 2.22797 14.2776C2.22797 14.3937 2.25095 14.5086 2.29558 14.6157C2.34021 14.7228 2.40562 14.8201 2.48802 14.9018C2.57048 14.9859 2.66901 15.0526 2.77775 15.0979C2.88649 15.1433 3.00322 15.1662 3.12102 15.1656C3.33775 15.1674 3.54752 15.0891 3.71006 14.9458L4.97606 13.7237C5.14394 13.5617 5.24057 13.3396 5.2447 13.1063C5.24882 12.873 5.16009 12.6476 4.99804 12.4797C4.83599 12.3118 4.61388 12.2152 4.38058 12.2111C4.14728 12.207 3.9219 12.2957 3.75402 12.4577V12.4314Z" fill="#EBEBF0"/>
<path d="M8.79169 5.27502C8.09616 5.27502 7.41625 5.48127 6.83794 5.86769C6.25962 6.2541 5.80888 6.80333 5.54272 7.44592C5.27655 8.0885 5.20691 8.79559 5.3426 9.47775C5.47829 10.1599 5.81322 10.7865 6.30503 11.2783C6.79685 11.7702 7.42346 12.1051 8.10562 12.2408C8.78779 12.3765 9.49487 12.3068 10.1375 12.0407C10.78 11.7745 11.3293 11.3238 11.7157 10.7454C12.1021 10.1671 12.3084 9.48722 12.3084 8.79169C12.3084 7.85901 11.9378 6.96453 11.2783 6.30503C10.6188 5.64553 9.72437 5.27502 8.79169 5.27502Z" fill="#EBEBF0"/>
</svg>
