<svg width="92" height="103" viewBox="0 0 92 103" fill="none" xmlns="http://www.w3.org/2000/svg">
<path d="M66 67.2865V76.3169L70.8 81.7351M28.6667 44.8108H2M87.3333 34.1081V23.4054C87.3333 17.4945 82.5579 12.7027 76.6667 12.7027H12.6667C6.77563 12.7027 2 17.4945 2 23.4054V87.6216C2 93.5327 6.77563 98.3243 12.6667 98.3243H28.6667M60.6667 2V23.4054M28.6667 2V23.4054M90 76.9189C90 90.2186 79.2549 101 66 101C52.7451 101 42 90.2186 42 76.9189C42 63.6192 52.7451 52.8378 66 52.8378C79.2549 52.8378 90 63.6192 90 76.9189Z" stroke="#EBEBF0" stroke-width="3" stroke-linecap="round" stroke-linejoin="round"/>
</svg>
